<svg width="123" height="38" viewBox="0 0 123 38" fill="none" xmlns="http://www.w3.org/2000/svg">
<path d="M15.1712 1.04109H20.6891L35.0562 38H28.9137L25.0096 27.9534H10.7466L6.89453 38H0.700012L15.1712 1.04109ZM23.8644 23.6329L17.9301 7.44384L11.7877 23.6329H23.8644Z" fill="black"/>
<path d="M38.97 1.04109L50.1098 30.8685L61.1974 1.04109H67.392L52.8687 38H47.3509L32.7755 1.04109H38.97Z" fill="black"/>
<path d="M71.1781 38V10.7753H76.9042V38H71.1781ZM71.1781 6.29863V0H76.9042V6.29863H71.1781Z" fill="black"/>
<path d="M84.5139 38V1.04109H97.6317C101.623 1.04109 104.954 1.87397 107.626 3.53972C110.298 5.17078 112.294 7.39178 113.613 10.2027C114.966 12.979 115.643 16.0676 115.643 19.4685C115.643 23.2164 114.897 26.4785 113.404 29.2548C111.947 32.031 109.865 34.1826 107.158 35.7096C104.451 37.2365 101.276 38 97.6317 38H84.5139ZM109.708 19.4685C109.708 16.8658 109.223 14.5753 108.251 12.5973C107.314 10.5845 105.943 9.02283 104.139 7.91233C102.369 6.76712 100.2 6.19452 97.6317 6.19452H90.3441V32.8466H97.6317C100.234 32.8466 102.421 32.2566 104.191 31.0767C105.995 29.8968 107.366 28.3005 108.303 26.2877C109.24 24.2749 109.708 22.0018 109.708 19.4685Z" fill="black"/>
<rect x="116.938" y="31.7534" width="5.72603" height="6.24658" fill="#D62828"/>
<rect x="71.1301" width="5.72603" height="6.24658" fill="#D62828"/>
</svg>
