<?xml version="1.0" encoding="UTF-8"?><svg width="100%" id="a" xmlns="http://www.w3.org/2000/svg" viewBox="0 0 234 50"><rect width="234" height="50" style="fill:#fce2cd;"/><rect width="234" height="11" style="fill:#fb8b24;"/><rect x="1.62" y="1.15" width="40" height="47" style="fill:#fff;"/><rect x="2.98" y="2.65" width="37.27" height="44" style="fill:#fb8b24;"/><g><path d="M13.94,23.29c.8-1.25,2.12-1.87,3.97-1.87s3.17,.62,3.97,1.87c.8,1.25,1.19,2.98,1.19,5.18s-.4,3.96-1.19,5.22c-.8,1.26-2.12,1.89-3.97,1.89s-3.17-.63-3.97-1.89-1.19-3-1.19-5.22,.4-3.93,1.19-5.18Zm6.31,2.8c-.12-.64-.36-1.17-.73-1.58-.36-.41-.9-.61-1.61-.61s-1.25,.2-1.62,.61c-.36,.41-.61,.93-.73,1.58-.12,.64-.18,1.44-.18,2.38s.06,1.78,.17,2.44c.11,.66,.36,1.19,.73,1.59s.91,.6,1.62,.6,1.25-.2,1.62-.6,.61-.93,.73-1.59c.11-.66,.17-1.47,.17-2.44s-.06-1.74-.18-2.38Z" style="fill:#fff; stroke:#f2f2f2; stroke-miterlimit:10; stroke-width:.25px;"/><path d="M24.77,24.15v-2.47h4.61v13.93h-2.75v-11.47h-1.85Z" style="fill:#fff; stroke:#f2f2f2; stroke-miterlimit:10; stroke-width:.25px;"/></g><g><path d="M13.97,10.7v.77h-1.97v1.21h1.51v.75h-1.51v2h-.95v-4.73h2.92Z" style="fill:#fff;"/><path d="M15.33,15.25c-.29-.16-.52-.39-.68-.68-.17-.29-.25-.63-.25-1.02s.08-.72,.25-1.02c.17-.29,.4-.52,.69-.68,.29-.16,.62-.24,.98-.24s.69,.08,.98,.24c.29,.16,.52,.39,.69,.68,.17,.29,.25,.63,.25,1.02s-.09,.72-.26,1.02c-.17,.29-.41,.52-.7,.68-.3,.16-.63,.24-.99,.24s-.69-.08-.98-.24Zm1.46-.71c.15-.08,.27-.21,.36-.38s.14-.37,.14-.61c0-.36-.09-.63-.28-.82-.19-.19-.42-.29-.69-.29s-.5,.1-.68,.29c-.18,.19-.27,.47-.27,.82s.09,.63,.27,.82,.4,.29,.67,.29c.17,0,.33-.04,.48-.12Z" style="fill:#fff;"/><path d="M19.65,15.25c-.29-.16-.52-.39-.68-.68-.17-.29-.25-.63-.25-1.02s.08-.72,.25-1.02c.17-.29,.4-.52,.69-.68,.29-.16,.62-.24,.98-.24s.69,.08,.98,.24c.29,.16,.52,.39,.69,.68,.17,.29,.25,.63,.25,1.02s-.09,.72-.26,1.02c-.17,.29-.41,.52-.7,.68-.3,.16-.63,.24-.99,.24s-.69-.08-.98-.24Zm1.46-.71c.15-.08,.27-.21,.36-.38s.14-.37,.14-.61c0-.36-.09-.63-.28-.82-.19-.19-.42-.29-.69-.29s-.5,.1-.68,.29c-.18,.19-.27,.47-.27,.82s.09,.63,.27,.82,.4,.29,.67,.29c.17,0,.33-.04,.48-.12Z" style="fill:#fff;"/><path d="M24.39,12.46v1.81c0,.13,.03,.22,.09,.27,.06,.06,.16,.08,.31,.08h.44v.8h-.6c-.8,0-1.2-.39-1.2-1.16v-1.81h-.45v-.78h.45v-.93h.95v.93h.84v.78h-.84Z" style="fill:#fff;"/><path d="M29.37,13.84h-2.74c.02,.27,.12,.48,.28,.64s.37,.23,.62,.23c.35,0,.6-.15,.75-.45h1.02c-.11,.36-.32,.66-.62,.89-.31,.23-.68,.35-1.13,.35-.36,0-.69-.08-.97-.24-.29-.16-.51-.39-.67-.68s-.24-.63-.24-1.02,.08-.73,.24-1.02c.16-.29,.38-.52,.66-.68,.28-.16,.61-.24,.98-.24s.68,.08,.96,.23c.28,.15,.5,.37,.66,.65,.16,.28,.23,.61,.23,.97,0,.14,0,.26-.03,.37Zm-.96-.64c0-.24-.09-.44-.26-.59-.17-.15-.38-.22-.63-.22-.23,0-.43,.07-.59,.21-.16,.14-.26,.34-.29,.59h1.78Z" style="fill:#fff;"/><path d="M31.51,11.79c.2-.11,.42-.17,.67-.17v1h-.25c-.3,0-.52,.07-.67,.21-.15,.14-.23,.38-.23,.73v1.87h-.95v-3.75h.95v.58c.12-.2,.28-.35,.48-.47Z" style="fill:#fff;"/></g><g><path d="M50.65,22.85v1.08h-4.1v-7.01h1.3v5.93h2.8Z" style="fill:#fb8b24;"/><path d="M58.02,20.42c0,.51-.09,.99-.25,1.43-.17,.44-.41,.82-.72,1.14-.31,.32-.68,.57-1.12,.75-.44,.18-.92,.27-1.45,.27s-1.01-.09-1.45-.27c-.44-.18-.81-.43-1.12-.75-.31-.32-.55-.7-.72-1.14-.17-.44-.26-.91-.26-1.43s.09-.99,.26-1.43c.17-.44,.41-.82,.72-1.14,.31-.32,.69-.57,1.12-.75,.44-.18,.92-.27,1.45-.27,.36,0,.69,.04,1,.12,.31,.08,.6,.2,.86,.35,.26,.15,.5,.33,.7,.55,.21,.21,.39,.45,.53,.72,.15,.26,.26,.55,.33,.86,.08,.31,.11,.64,.11,.98Zm-1.33,0c0-.38-.05-.73-.16-1.04-.1-.3-.25-.56-.44-.78-.19-.21-.42-.38-.7-.49-.27-.11-.58-.17-.92-.17s-.65,.06-.92,.17c-.27,.11-.51,.28-.7,.49s-.34,.47-.44,.78c-.1,.31-.16,.65-.16,1.04s.05,.73,.16,1.04c.1,.3,.25,.56,.44,.77,.19,.21,.42,.38,.7,.49,.27,.11,.58,.17,.92,.17s.65-.06,.92-.17c.27-.11,.5-.27,.7-.49,.19-.21,.34-.47,.44-.77,.1-.31,.16-.65,.16-1.04Z" style="fill:#fb8b24;"/><path d="M64.94,20.41v2.83c-.36,.26-.73,.45-1.14,.57-.4,.12-.83,.18-1.29,.18-.57,0-1.09-.09-1.55-.27-.46-.18-.86-.42-1.19-.74-.33-.32-.58-.69-.76-1.13-.18-.44-.27-.92-.27-1.44s.09-1.01,.26-1.45c.17-.44,.41-.82,.73-1.13,.31-.32,.7-.56,1.15-.74,.45-.17,.95-.26,1.51-.26,.28,0,.55,.02,.8,.07,.25,.05,.48,.11,.69,.19,.21,.08,.4,.17,.58,.29,.17,.11,.33,.24,.48,.37l-.37,.59c-.06,.09-.13,.15-.23,.17-.09,.02-.2,0-.31-.07-.11-.06-.21-.12-.32-.18-.11-.06-.23-.12-.36-.16-.13-.05-.28-.08-.44-.11s-.35-.04-.56-.04c-.35,0-.66,.06-.94,.17-.28,.12-.52,.28-.71,.5-.2,.22-.35,.48-.46,.78-.11,.3-.16,.64-.16,1.02,0,.4,.06,.76,.17,1.07,.11,.31,.28,.58,.48,.8,.21,.22,.46,.38,.75,.5,.29,.12,.62,.17,.98,.17,.26,0,.49-.03,.69-.08,.2-.06,.4-.13,.6-.22v-1.27h-.88c-.08,0-.15-.02-.2-.07-.05-.05-.07-.1-.07-.17v-.74h2.33Z" style="fill:#fb8b24;"/><path d="M72.88,20.42c0,.51-.09,.99-.25,1.43-.17,.44-.41,.82-.72,1.14-.31,.32-.68,.57-1.12,.75-.44,.18-.92,.27-1.45,.27s-1.01-.09-1.45-.27c-.44-.18-.81-.43-1.12-.75-.31-.32-.55-.7-.72-1.14-.17-.44-.26-.91-.26-1.43s.09-.99,.26-1.43c.17-.44,.41-.82,.72-1.14,.31-.32,.69-.57,1.12-.75,.44-.18,.92-.27,1.45-.27,.36,0,.69,.04,1,.12,.31,.08,.6,.2,.86,.35,.26,.15,.5,.33,.7,.55,.21,.21,.39,.45,.53,.72,.15,.26,.26,.55,.33,.86,.08,.31,.11,.64,.11,.98Zm-1.33,0c0-.38-.05-.73-.15-1.04-.1-.3-.25-.56-.44-.78-.19-.21-.42-.38-.7-.49-.27-.11-.58-.17-.92-.17s-.65,.06-.92,.17c-.27,.11-.51,.28-.7,.49-.19,.21-.34,.47-.44,.78-.1,.31-.16,.65-.16,1.04s.05,.73,.16,1.04c.1,.3,.25,.56,.44,.77,.19,.21,.42,.38,.7,.49,.27,.11,.58,.17,.92,.17s.65-.06,.92-.17c.27-.11,.5-.27,.7-.49,.19-.21,.34-.47,.44-.77,.1-.31,.15-.65,.15-1.04Z" style="fill:#fb8b24;"/></g><g style="opacity:.4;"><rect x="47" y="28.42" width="28" height="3" style="fill:#fb8b24;"/><rect x="86.24" y="28" width="28" height="3" style="fill:#fb8b24;"/><rect x="86.24" y="33" width="28" height="3" style="fill:#fb8b24;"/><rect x="86.24" y="38" width="28" height="3" style="fill:#fb8b24;"/><rect x="124.83" y="28" width="28" height="3" style="fill:#fb8b24;"/><rect x="124.83" y="33" width="28" height="3" style="fill:#fb8b24;"/><rect x="124.83" y="38" width="28" height="3" style="fill:#fb8b24;"/><rect x="163.41" y="28" width="28" height="3" style="fill:#fb8b24;"/><rect x="163.41" y="33" width="28" height="3" style="fill:#fb8b24;"/><rect x="163.41" y="38" width="28" height="3" style="fill:#fb8b24;"/></g><rect x="86.24" y="17" width="28" height="7" style="fill:#fb8b24;"/><rect x="124.83" y="17" width="28" height="7" style="fill:#fb8b24;"/><rect x="163.41" y="17" width="28" height="7" style="fill:#fb8b24;"/><rect x="202" y="17" width="28" height="7" style="fill:#fb8b24;"/><rect x="202" y="27" width="7" height="7" style="fill:#fb8b24; opacity:.5;"/><rect x="213" y="27" width="7" height="7" style="fill:#fb8b24; opacity:.5;"/><rect x="223" y="27" width="7" height="7" style="fill:#fb8b24; opacity:.5;"/><rect x="202" y="36" width="7" height="7" style="fill:#fb8b24; opacity:.5;"/><rect x="213" y="36" width="7" height="7" style="fill:#fb8b24; opacity:.5;"/><rect x="223" y="36" width="7" height="7" style="fill:#fb8b24; opacity:.5;"/></svg>