<?xml version="1.0" encoding="UTF-8"?><svg width="100%" id="a" xmlns="http://www.w3.org/2000/svg" viewBox="0 0 234 50"><rect width="234" height="50" style="fill:#fce2cd;"/><rect width="234" height="11" style="fill:#fb8b24;"/><rect x="1.62" y="1.15" width="40" height="47" style="fill:#fff;"/><rect x="2.98" y="2.65" width="37.27" height="44" style="fill:#fb8b24;"/><g><path d="M11.94,23.29c.8-1.25,2.12-1.87,3.97-1.87s3.17,.62,3.97,1.87c.8,1.25,1.19,2.98,1.19,5.18s-.4,3.96-1.19,5.22c-.8,1.26-2.12,1.89-3.97,1.89s-3.17-.63-3.97-1.89-1.19-3-1.19-5.22,.4-3.93,1.19-5.18Zm6.31,2.8c-.12-.64-.36-1.17-.73-1.58-.36-.41-.9-.61-1.61-.61s-1.25,.2-1.62,.61c-.36,.41-.61,.93-.73,1.58-.12,.64-.18,1.44-.18,2.38s.06,1.78,.17,2.44c.11,.66,.36,1.19,.73,1.59s.91,.6,1.62,.6,1.25-.2,1.62-.6,.61-.93,.73-1.59c.11-.66,.17-1.47,.17-2.44s-.06-1.74-.18-2.38Z" style="fill:#fff; stroke:#f2f2f2; stroke-miterlimit:10; stroke-width:.25px;"/><path d="M24.48,22.4c.83-.69,1.93-1.04,3.3-1.04,.93,0,1.73,.16,2.39,.49,.66,.32,1.16,.76,1.5,1.32,.34,.55,.51,1.18,.51,1.88,0,.8-.21,1.48-.62,2.04-.41,.55-.91,.93-1.48,1.12v.08c.74,.23,1.32,.64,1.73,1.22s.62,1.34,.62,2.25c0,.76-.18,1.45-.53,2.05-.35,.6-.87,1.07-1.55,1.4-.68,.34-1.5,.51-2.46,.51-1.44,0-2.61-.36-3.52-1.09-.91-.73-1.38-1.8-1.43-3.21h2.6c.03,.62,.24,1.12,.64,1.5,.4,.38,.95,.56,1.65,.56,.65,0,1.15-.18,1.5-.54s.53-.83,.53-1.41c0-.76-.24-1.31-.73-1.64s-1.24-.5-2.26-.5h-.55v-2.2h.55c1.81,0,2.71-.6,2.71-1.82,0-.55-.16-.97-.49-1.28-.33-.31-.79-.46-1.41-.46s-1.06,.16-1.39,.49c-.32,.33-.51,.74-.56,1.23h-2.62c.06-1.27,.51-2.26,1.35-2.95Z" style="fill:#fff; stroke:#f2f2f2; stroke-miterlimit:10; stroke-width:.25px;"/></g><g><path d="M13.97,10.7v.77h-1.97v1.21h1.51v.75h-1.51v2h-.95v-4.73h2.92Z" style="fill:#fff;"/><path d="M15.33,15.25c-.29-.16-.52-.39-.68-.68-.17-.29-.25-.63-.25-1.02s.08-.72,.25-1.02c.17-.29,.4-.52,.69-.68,.29-.16,.62-.24,.98-.24s.69,.08,.98,.24c.29,.16,.52,.39,.69,.68,.17,.29,.25,.63,.25,1.02s-.09,.72-.26,1.02c-.17,.29-.41,.52-.7,.68-.3,.16-.63,.24-.99,.24s-.69-.08-.98-.24Zm1.46-.71c.15-.08,.27-.21,.36-.38s.14-.37,.14-.61c0-.36-.09-.63-.28-.82-.19-.19-.42-.29-.69-.29s-.5,.1-.68,.29c-.18,.19-.27,.47-.27,.82s.09,.63,.27,.82,.4,.29,.67,.29c.17,0,.33-.04,.48-.12Z" style="fill:#fff;"/><path d="M19.65,15.25c-.29-.16-.52-.39-.68-.68-.17-.29-.25-.63-.25-1.02s.08-.72,.25-1.02c.17-.29,.4-.52,.69-.68,.29-.16,.62-.24,.98-.24s.69,.08,.98,.24c.29,.16,.52,.39,.69,.68,.17,.29,.25,.63,.25,1.02s-.09,.72-.26,1.02c-.17,.29-.41,.52-.7,.68-.3,.16-.63,.24-.99,.24s-.69-.08-.98-.24Zm1.46-.71c.15-.08,.27-.21,.36-.38s.14-.37,.14-.61c0-.36-.09-.63-.28-.82-.19-.19-.42-.29-.69-.29s-.5,.1-.68,.29c-.18,.19-.27,.47-.27,.82s.09,.63,.27,.82,.4,.29,.67,.29c.17,0,.33-.04,.48-.12Z" style="fill:#fff;"/><path d="M24.39,12.46v1.81c0,.13,.03,.22,.09,.27,.06,.06,.16,.08,.31,.08h.44v.8h-.6c-.8,0-1.2-.39-1.2-1.16v-1.81h-.45v-.78h.45v-.93h.95v.93h.84v.78h-.84Z" style="fill:#fff;"/><path d="M29.37,13.84h-2.74c.02,.27,.12,.48,.28,.64s.37,.23,.62,.23c.35,0,.6-.15,.75-.45h1.02c-.11,.36-.32,.66-.62,.89-.31,.23-.68,.35-1.13,.35-.36,0-.69-.08-.97-.24-.29-.16-.51-.39-.67-.68s-.24-.63-.24-1.02,.08-.73,.24-1.02c.16-.29,.38-.52,.66-.68,.28-.16,.61-.24,.98-.24s.68,.08,.96,.23c.28,.15,.5,.37,.66,.65,.16,.28,.23,.61,.23,.97,0,.14,0,.26-.03,.37Zm-.96-.64c0-.24-.09-.44-.26-.59-.17-.15-.38-.22-.63-.22-.23,0-.43,.07-.59,.21-.16,.14-.26,.34-.29,.59h1.78Z" style="fill:#fff;"/><path d="M31.51,11.79c.2-.11,.42-.17,.67-.17v1h-.25c-.3,0-.52,.07-.67,.21-.15,.14-.23,.38-.23,.73v1.87h-.95v-3.75h.95v.58c.12-.2,.28-.35,.48-.47Z" style="fill:#fff;"/></g><g><path d="M49.32,46.13v.76h-2.89v-4.94h.92v4.18h1.97Z" style="fill:#fb8b24;"/><path d="M54.52,44.42c0,.36-.06,.7-.18,1.01-.12,.31-.29,.57-.51,.8-.22,.23-.48,.4-.79,.53-.31,.13-.65,.19-1.03,.19s-.71-.06-1.02-.19c-.31-.13-.57-.3-.79-.53-.22-.23-.39-.49-.51-.8-.12-.31-.18-.64-.18-1.01s.06-.7,.18-1.01c.12-.31,.29-.57,.51-.8,.22-.23,.48-.4,.79-.53,.31-.13,.65-.19,1.02-.19,.25,0,.49,.03,.71,.09,.22,.06,.42,.14,.61,.25,.18,.11,.35,.23,.5,.39,.15,.15,.27,.32,.37,.51,.1,.19,.18,.39,.23,.61,.05,.22,.08,.45,.08,.69Zm-.94,0c0-.27-.04-.51-.11-.73-.07-.21-.18-.4-.31-.55-.13-.15-.3-.27-.49-.34-.19-.08-.41-.12-.65-.12s-.46,.04-.65,.12c-.19,.08-.36,.19-.49,.34s-.24,.33-.31,.55c-.07,.22-.11,.46-.11,.73s.04,.51,.11,.73c.07,.21,.18,.4,.31,.55,.14,.15,.3,.26,.49,.34,.19,.08,.41,.12,.65,.12s.46-.04,.65-.12c.19-.08,.36-.19,.49-.34,.13-.15,.24-.33,.31-.55,.07-.22,.11-.46,.11-.73Z" style="fill:#fb8b24;"/><path d="M59.4,44.42v2c-.25,.18-.52,.32-.8,.4-.28,.09-.59,.13-.91,.13-.4,0-.77-.06-1.1-.19-.33-.12-.61-.3-.84-.52-.23-.22-.41-.49-.54-.8-.13-.31-.19-.65-.19-1.01s.06-.71,.18-1.02c.12-.31,.29-.58,.51-.8,.22-.22,.49-.4,.81-.52,.32-.12,.67-.18,1.07-.18,.2,0,.39,.02,.56,.05,.17,.03,.34,.08,.49,.13,.15,.06,.29,.12,.41,.2,.12,.08,.24,.17,.34,.26l-.26,.42c-.04,.07-.09,.11-.16,.12-.07,.02-.14,0-.22-.05-.08-.04-.15-.09-.23-.13-.08-.04-.16-.08-.25-.11-.09-.03-.2-.06-.31-.08s-.25-.03-.4-.03c-.24,0-.46,.04-.66,.12-.2,.08-.36,.2-.5,.35-.14,.15-.25,.34-.32,.55-.08,.21-.11,.45-.11,.72,0,.28,.04,.54,.12,.76,.08,.22,.19,.41,.34,.56,.15,.15,.32,.27,.53,.35,.21,.08,.44,.12,.69,.12,.18,0,.35-.02,.49-.06,.14-.04,.28-.09,.42-.16v-.9h-.62c-.06,0-.11-.02-.14-.05-.03-.03-.05-.07-.05-.12v-.52h1.64Z" style="fill:#fb8b24;"/><path d="M65,44.42c0,.36-.06,.7-.18,1.01-.12,.31-.29,.57-.51,.8-.22,.23-.48,.4-.79,.53-.31,.13-.65,.19-1.03,.19s-.71-.06-1.02-.19c-.31-.13-.57-.3-.79-.53-.22-.23-.39-.49-.51-.8-.12-.31-.18-.64-.18-1.01s.06-.7,.18-1.01c.12-.31,.29-.57,.51-.8,.22-.23,.48-.4,.79-.53,.31-.13,.65-.19,1.02-.19,.25,0,.49,.03,.71,.09,.22,.06,.42,.14,.61,.25,.18,.11,.35,.23,.5,.39,.15,.15,.27,.32,.37,.51,.1,.19,.18,.39,.23,.61,.05,.22,.08,.45,.08,.69Zm-.94,0c0-.27-.04-.51-.11-.73-.07-.21-.18-.4-.31-.55-.13-.15-.3-.27-.49-.34-.19-.08-.41-.12-.65-.12s-.46,.04-.65,.12c-.19,.08-.36,.19-.49,.34-.14,.15-.24,.33-.31,.55-.07,.22-.11,.46-.11,.73s.04,.51,.11,.73c.07,.21,.18,.4,.31,.55,.14,.15,.3,.26,.49,.34,.19,.08,.41,.12,.65,.12s.46-.04,.65-.12c.19-.08,.36-.19,.49-.34,.13-.15,.24-.33,.31-.55,.07-.22,.11-.46,.11-.73Z" style="fill:#fb8b24;"/></g><rect x="202" y="32" width="28" height="3" style="fill:#fb8b24;"/><rect x="86.24" y="25" width="28" height="3" style="fill:#fb8b24; opacity:.5;"/><rect x="86.24" y="30" width="28" height="3" style="fill:#fb8b24; opacity:.5;"/><rect x="86.24" y="35" width="28" height="3" style="fill:#fb8b24; opacity:.5;"/><g><rect x="110" y="44" width="13" height="3" style="fill:#fb8b24; opacity:.5;"/><rect x="125" y="44" width="13" height="3" style="fill:#fb8b24; opacity:.5;"/><rect x="140" y="44" width="13" height="3" style="fill:#fb8b24; opacity:.5;"/><rect x="155" y="44" width="13" height="3" style="fill:#fb8b24; opacity:.5;"/></g><rect x="86.24" y="14" width="28" height="7" style="fill:#fb8b24;"/><g><rect x="46" y="25" width="28" height="3" style="fill:#fb8b24; opacity:.5;"/><rect x="46" y="30" width="28" height="3" style="fill:#fb8b24; opacity:.5;"/><rect x="46" y="35" width="28" height="3" style="fill:#fb8b24; opacity:.5;"/><rect x="46" y="14" width="28" height="7" style="fill:#fb8b24;"/></g><g><rect x="124.83" y="25" width="28" height="3" style="fill:#fb8b24; opacity:.5;"/><rect x="124.83" y="30" width="28" height="3" style="fill:#fb8b24; opacity:.5;"/><rect x="124.83" y="35" width="28" height="3" style="fill:#fb8b24; opacity:.5;"/><rect x="124.83" y="14" width="28" height="7" style="fill:#fb8b24;"/></g><g><rect x="163.41" y="25" width="28" height="3" style="fill:#fb8b24; opacity:.5;"/><rect x="163.41" y="30" width="28" height="3" style="fill:#fb8b24; opacity:.5;"/><rect x="163.41" y="35" width="28" height="3" style="fill:#fb8b24; opacity:.5;"/><rect x="163.41" y="14" width="28" height="7" style="fill:#fb8b24;"/></g><rect x="202" y="25" width="28" height="3" style="fill:#fb8b24;"/><rect x="202" y="14" width="28" height="7" style="fill:#fb8b24;"/><circle cx="205" cy="45" r="3" style="fill:#fb8b24;"/><circle cx="216" cy="45" r="3" style="fill:#fb8b24;"/><circle cx="226" cy="45" r="3" style="fill:#fb8b24;"/></svg>