<?xml version="1.0" encoding="UTF-8"?><svg width="100%" id="a" xmlns="http://www.w3.org/2000/svg" viewBox="0 0 234 50"><rect width="234" height="50" style="fill:#fce2cd;"/><rect width="234" height="11" style="fill:#fb8b24;"/><g><rect x="111.83" y="26" width="15" height="5" rx="2.22" ry="2.22" style="fill:#fb8b24; stroke:#fff; stroke-miterlimit:10; stroke-width:.25px;"/><rect x="93.5" y="26" width="15" height="5" rx="2.22" ry="2.22" style="fill:#fb8b24; stroke:#fff; stroke-miterlimit:10; stroke-width:.25px;"/><rect x="130.17" y="26" width="15" height="5" rx="2.22" ry="2.22" style="fill:#fb8b24; stroke:#fff; stroke-miterlimit:10; stroke-width:.25px;"/><path d="M150.72,26h10.56c1.23,0,2.22,1,2.22,2.22v.56c0,1.23-1,2.22-2.22,2.22h-10.56c-1.23,0-2.22-1-2.22-2.22v-.56c0-1.23,1-2.22,2.22-2.22Z" style="fill:#fb8b24; stroke:#fff; stroke-miterlimit:10; stroke-width:.25px;"/></g><rect x="2.14" y="1.43" width="40" height="47" style="fill:#fff;"/><rect x="3.51" y="2.93" width="37.27" height="44" style="fill:#fb8b24;"/><g><path d="M11.94,23.29c.8-1.25,2.12-1.87,3.97-1.87s3.17,.62,3.97,1.87c.8,1.25,1.19,2.98,1.19,5.18s-.4,3.96-1.19,5.22c-.8,1.26-2.12,1.89-3.97,1.89s-3.17-.63-3.97-1.89-1.19-3-1.19-5.22,.4-3.93,1.19-5.18Zm6.31,2.8c-.12-.64-.36-1.17-.73-1.58-.36-.41-.9-.61-1.61-.61s-1.25,.2-1.62,.61c-.36,.41-.61,.93-.73,1.58-.12,.64-.18,1.44-.18,2.38s.06,1.78,.17,2.44c.11,.66,.36,1.19,.73,1.59s.91,.6,1.62,.6,1.25-.2,1.62-.6,.61-.93,.73-1.59c.11-.66,.17-1.47,.17-2.44s-.06-1.74-.18-2.38Z" style="fill:#fff;"/><path d="M24.48,22.4c.83-.69,1.93-1.04,3.3-1.04,.93,0,1.73,.16,2.39,.49,.66,.32,1.16,.76,1.5,1.32,.34,.55,.51,1.18,.51,1.88,0,.8-.21,1.48-.62,2.04-.41,.55-.91,.93-1.48,1.12v.08c.74,.23,1.32,.64,1.73,1.22s.62,1.34,.62,2.25c0,.76-.18,1.45-.53,2.05-.35,.6-.87,1.07-1.55,1.4-.68,.34-1.5,.51-2.46,.51-1.44,0-2.61-.36-3.52-1.09-.91-.73-1.38-1.8-1.43-3.21h2.6c.03,.62,.24,1.12,.64,1.5,.4,.38,.95,.56,1.65,.56,.65,0,1.15-.18,1.5-.54s.53-.83,.53-1.41c0-.76-.24-1.31-.73-1.64s-1.24-.5-2.26-.5h-.55v-2.2h.55c1.81,0,2.71-.6,2.71-1.82,0-.55-.16-.97-.49-1.28-.33-.31-.79-.46-1.41-.46s-1.06,.16-1.39,.49c-.32,.33-.51,.74-.56,1.23h-2.62c.06-1.27,.51-2.26,1.35-2.95Z" style="fill:#fff;"/></g><g><path d="M14.26,10.7v4.73h-.95v-2.01h-2.02v2.01h-.95v-4.73h.95v1.94h2.02v-1.94h.95Z" style="fill:#fff;"/><path d="M18.66,13.84h-2.74c.02,.27,.12,.48,.28,.64s.37,.23,.62,.23c.35,0,.6-.15,.75-.45h1.02c-.11,.36-.32,.66-.62,.89-.31,.23-.68,.35-1.13,.35-.36,0-.69-.08-.97-.24-.29-.16-.51-.39-.67-.68s-.24-.63-.24-1.02,.08-.73,.24-1.02c.16-.29,.38-.52,.66-.68,.28-.16,.61-.24,.98-.24s.68,.08,.96,.23c.28,.15,.5,.37,.66,.65,.16,.28,.23,.61,.23,.97,0,.14,0,.26-.03,.37Zm-.96-.64c0-.24-.09-.44-.26-.59-.17-.15-.38-.22-.63-.22-.23,0-.43,.07-.59,.21-.16,.14-.26,.34-.29,.59h1.78Z" style="fill:#fff;"/><path d="M19.36,12.53c.15-.29,.36-.52,.62-.68,.26-.16,.55-.24,.87-.24,.28,0,.52,.06,.73,.17,.21,.11,.38,.25,.5,.43v-.53h.96v3.75h-.96v-.55c-.12,.18-.29,.32-.5,.44s-.46,.17-.74,.17c-.32,0-.6-.08-.86-.24-.26-.16-.46-.39-.62-.69-.15-.3-.23-.64-.23-1.02s.08-.72,.23-1.01Zm2.59,.43c-.09-.17-.21-.29-.37-.38-.15-.09-.32-.13-.49-.13s-.34,.04-.49,.13c-.15,.09-.27,.21-.36,.38-.09,.16-.14,.36-.14,.59s.05,.42,.14,.59c.09,.17,.21,.3,.37,.39,.15,.09,.31,.14,.48,.14s.34-.04,.49-.13c.15-.09,.28-.21,.37-.38,.09-.16,.14-.36,.14-.59s-.04-.43-.14-.59Z" style="fill:#fff;"/><path d="M23.95,12.53c.15-.29,.36-.52,.62-.68,.26-.16,.55-.24,.87-.24,.24,0,.48,.05,.7,.16s.4,.25,.53,.42v-1.78h.96v5.01h-.96v-.56c-.12,.19-.28,.33-.49,.45-.21,.11-.46,.17-.74,.17-.32,0-.6-.08-.87-.24-.26-.16-.47-.39-.62-.69-.15-.3-.23-.64-.23-1.02s.08-.72,.23-1.01Zm2.59,.43c-.09-.17-.21-.29-.37-.38-.15-.09-.32-.13-.49-.13s-.34,.04-.49,.13c-.15,.09-.27,.21-.36,.38-.09,.16-.14,.36-.14,.59s.05,.42,.14,.59c.09,.17,.21,.3,.37,.39,.15,.09,.31,.14,.48,.14s.34-.04,.49-.13c.15-.09,.28-.21,.37-.38,.09-.16,.14-.36,.14-.59s-.04-.43-.14-.59Z" style="fill:#fff;"/><path d="M32.02,13.84h-2.74c.02,.27,.12,.48,.28,.64s.37,.23,.62,.23c.35,0,.6-.15,.75-.45h1.02c-.11,.36-.32,.66-.62,.89-.31,.23-.68,.35-1.13,.35-.36,0-.69-.08-.97-.24-.29-.16-.51-.39-.67-.68s-.24-.63-.24-1.02,.08-.73,.24-1.02c.16-.29,.38-.52,.66-.68,.28-.16,.61-.24,.98-.24s.68,.08,.96,.23c.28,.15,.5,.37,.66,.65,.16,.28,.23,.61,.23,.97,0,.14,0,.26-.03,.37Zm-.96-.64c0-.24-.09-.44-.26-.59-.17-.15-.38-.22-.63-.22-.23,0-.43,.07-.59,.21-.16,.14-.26,.34-.29,.59h1.78Z" style="fill:#fff;"/><path d="M34.16,11.79c.2-.11,.42-.17,.67-.17v1h-.25c-.3,0-.52,.07-.67,.21-.15,.14-.23,.38-.23,.73v1.87h-.95v-3.75h.95v.58c.12-.2,.28-.35,.48-.47Z" style="fill:#fff;"/></g><path d="M231.3,28.42c0,2.02-1.63,3.65-3.65,3.65s-3.65-1.63-3.65-3.65,1.63-3.65,3.65-3.65,3.65,1.63,3.65,3.65Z" style="fill:#fb8b24;"/><g><path d="M49.65,30.85v1.08h-4.1v-7.01h1.3v5.93h2.8Z" style="fill:#fb8b24;"/><path d="M57.02,28.42c0,.51-.09,.99-.25,1.43-.17,.44-.41,.82-.72,1.14-.31,.32-.68,.57-1.12,.75-.44,.18-.92,.27-1.45,.27s-1.01-.09-1.45-.27c-.44-.18-.81-.43-1.12-.75-.31-.32-.55-.7-.72-1.14-.17-.44-.26-.91-.26-1.43s.09-.99,.26-1.43c.17-.44,.41-.82,.72-1.14,.31-.32,.69-.57,1.12-.75,.44-.18,.92-.27,1.45-.27,.36,0,.69,.04,1,.12,.31,.08,.6,.2,.86,.35,.26,.15,.5,.33,.7,.55,.21,.21,.39,.45,.53,.72,.15,.26,.26,.55,.33,.86,.08,.31,.11,.64,.11,.98Zm-1.33,0c0-.38-.05-.73-.16-1.04-.1-.3-.25-.56-.44-.78-.19-.21-.42-.38-.7-.49-.27-.11-.58-.17-.92-.17s-.65,.06-.92,.17c-.27,.11-.51,.28-.7,.49s-.34,.47-.44,.78c-.1,.31-.16,.65-.16,1.04s.05,.73,.16,1.04c.1,.3,.25,.56,.44,.77,.19,.21,.42,.38,.7,.49,.27,.11,.58,.17,.92,.17s.65-.06,.92-.17c.27-.11,.5-.27,.7-.49,.19-.21,.34-.47,.44-.77,.1-.31,.16-.65,.16-1.04Z" style="fill:#fb8b24;"/><path d="M63.94,28.41v2.83c-.36,.26-.73,.45-1.14,.57-.4,.12-.83,.18-1.29,.18-.57,0-1.09-.09-1.55-.27-.46-.18-.86-.42-1.19-.74-.33-.32-.58-.69-.76-1.13-.18-.44-.27-.92-.27-1.44s.09-1.01,.26-1.45c.17-.44,.41-.82,.73-1.13,.31-.32,.7-.56,1.15-.74,.45-.17,.95-.26,1.51-.26,.28,0,.55,.02,.8,.07,.25,.05,.48,.11,.69,.19,.21,.08,.4,.17,.58,.29,.17,.11,.33,.24,.48,.37l-.37,.59c-.06,.09-.13,.15-.23,.17-.09,.02-.2,0-.31-.07-.11-.06-.21-.12-.32-.18-.11-.06-.23-.12-.36-.16-.13-.05-.28-.08-.44-.11s-.35-.04-.56-.04c-.35,0-.66,.06-.94,.17-.28,.12-.52,.28-.71,.5-.2,.22-.35,.48-.46,.78-.11,.3-.16,.64-.16,1.02,0,.4,.06,.76,.17,1.07,.11,.31,.28,.58,.48,.8,.21,.22,.46,.38,.75,.5,.29,.12,.62,.17,.98,.17,.26,0,.49-.03,.69-.08,.2-.06,.4-.13,.6-.22v-1.27h-.88c-.08,0-.15-.02-.2-.07-.05-.05-.07-.1-.07-.17v-.74h2.33Z" style="fill:#fb8b24;"/><path d="M71.88,28.42c0,.51-.09,.99-.25,1.43-.17,.44-.41,.82-.72,1.14-.31,.32-.68,.57-1.12,.75-.44,.18-.92,.27-1.45,.27s-1.01-.09-1.45-.27c-.44-.18-.81-.43-1.12-.75-.31-.32-.55-.7-.72-1.14-.17-.44-.26-.91-.26-1.43s.09-.99,.26-1.43c.17-.44,.41-.82,.72-1.14,.31-.32,.69-.57,1.12-.75,.44-.18,.92-.27,1.45-.27,.36,0,.69,.04,1,.12,.31,.08,.6,.2,.86,.35,.26,.15,.5,.33,.7,.55,.21,.21,.39,.45,.53,.72,.15,.26,.26,.55,.33,.86,.08,.31,.11,.64,.11,.98Zm-1.33,0c0-.38-.05-.73-.15-1.04-.1-.3-.25-.56-.44-.78-.19-.21-.42-.38-.7-.49-.27-.11-.58-.17-.92-.17s-.65,.06-.92,.17c-.27,.11-.51,.28-.7,.49-.19,.21-.34,.47-.44,.78-.1,.31-.16,.65-.16,1.04s.05,.73,.16,1.04c.1,.3,.25,.56,.44,.77,.19,.21,.42,.38,.7,.49,.27,.11,.58,.17,.92,.17s.65-.06,.92-.17c.27-.11,.5-.27,.7-.49,.19-.21,.34-.47,.44-.77,.1-.31,.15-.65,.15-1.04Z" style="fill:#fb8b24;"/></g><rect x="207" y="29" width="15" height="1" style="fill:#fb8b24; opacity:.2;"/><rect x="212" y="27" width="10" height="1" style="fill:#fb8b24; opacity:.2;"/></svg>